<?xml version="1.0" encoding="UTF-8"?>
<svg id="Layer_1" data-name="Layer 1" xmlns="http://www.w3.org/2000/svg" viewBox="0 0 301 170.6">
  <path d="M300.97,43.66l-.38.51.41.53c0-.36-.01-.71-.03-1.04Z" fill="#000" stroke-width="0"/>
  <g>
    <g>
      <path d="M94.7,148.56h-15.32c-2.11,0-3.1-.54-3.1-2.83v-2.89l3.13-.54v3.43h15.29v-8.1h-14.66c-2.26,0-3.16-.51-3.16-2.83v-7.07c0-2.29.9-2.83,3.16-2.83h14.42c2.41,0,3.16.57,3.16,2.83v2.2l-3.16.51v-2.71h-14.42v7.07h14.66c2.35,0,3.16.57,3.16,2.83v8.1c0,1.87-.9,2.83-3.16,2.83Z" fill="#fff" stroke-width="0"/>
      <path d="M102.44,124.9l8.64,10.57,8.67-10.57h3.97l-11.05,13.34v10.33h-3.16v-10.33l-11.02-13.34h3.94Z" fill="#fff" stroke-width="0"/>
      <path d="M128.37,124.9l17.79,18.91v-18.91h3.16v23.66h-3.01l-17.34-18.36v18.36h-3.16v-23.66h2.56Z" fill="#fff" stroke-width="0"/>
      <path d="M155.77,124.9h15.11c2.38,0,3.19.54,3.19,2.83v4.76l-3.16.66v-5.42h-15.14v18h15.17v-5.48l3.16.87v4.61c0,1.87-.9,2.83-3.16,2.83h-15.17c-2.14,0-3.16-.51-3.16-2.8v-18.03c0-2.29.9-2.83,3.16-2.83Z" fill="#fff" stroke-width="0"/>
      <path d="M179.19,124.9l7.35,9.42,7.32-9.42h3.79l-8.88,11.74,9.18,11.92h-3.88l-7.74-9.75-7.71,9.75h-3.91l9.54-11.92-8.94-11.74h3.88Z" fill="#fff" stroke-width="0"/>
      <path d="M217.22,148.56h-15.32c-2.11,0-3.1-.54-3.1-2.83v-2.89l3.13-.54v3.43h15.29v-8.1h-14.66c-2.26,0-3.16-.51-3.16-2.83v-7.07c0-2.29.9-2.83,3.16-2.83h14.42c2.41,0,3.16.57,3.16,2.83v2.2l-3.16.51v-2.71h-14.42v7.07h14.66c2.35,0,3.16.57,3.16,2.83v8.1c0,1.87-.9,2.83-3.16,2.83Z" fill="#fff" stroke-width="0"/>
      <path d="M241.58,148.56h-15.32c-2.11,0-3.1-.54-3.1-2.83v-2.89l3.13-.54v3.43h15.29v-8.1h-14.66c-2.26,0-3.16-.51-3.16-2.83v-7.07c0-2.29.9-2.83,3.16-2.83h14.42c2.41,0,3.16.57,3.16,2.83v2.2l-3.16.51v-2.71h-14.42v7.07h14.66c2.35,0,3.16.57,3.16,2.83v8.1c0,1.87-.9,2.83-3.16,2.83Z" fill="#fff" stroke-width="0"/>
    </g>
    <path d="M84.91,170.6h-10.76l-14.36-18.11-7.06-8.91-1.69,2.14-11.67,14.77-6.19,7.84H8.59C2.75,168.33,0,166.83,0,160.49v-8l8.67-1.5v9.51h19.96l17.96-22.43H10.42c-6.25,0-8.76-1.42-8.76-7.84v-19.6c0-6.34,2.5-7.84,8.76-7.84h39.94c6.67,0,8.76,1.58,8.76,7.84v6.09l-8.76,1.42v-7.5H10.42v19.6h40.61c.55,0,1.08.02,1.57.04.47.02.91.06,1.32.11l19.65-25.3h10.51l-24.31,32.13-.29.39.31.4,25.12,32.62Z" fill="#fff" stroke-width="0"/>
  </g>
  <g>
    <g>
      <path d="M94.7,45.77h-15.32c-2.11,0-3.1-.54-3.1-2.83v-2.89l3.13-.54v3.43h15.29v-8.1h-14.66c-2.26,0-3.16-.51-3.16-2.83v-7.07c0-2.29.9-2.83,3.16-2.83h14.42c2.41,0,3.16.57,3.16,2.83v2.2l-3.16.51v-2.71h-14.42v7.07h14.66c2.35,0,3.16.57,3.16,2.83v8.1c0,1.87-.9,2.83-3.16,2.83Z" fill="#fff" stroke-width="0"/>
      <path d="M102.44,22.11l8.64,10.57,8.67-10.57h3.97l-11.05,13.34v10.33h-3.16v-10.33l-11.02-13.34h3.94Z" fill="#fff" stroke-width="0"/>
      <path d="M128.37,22.11l17.79,18.91v-18.91h3.16v23.66h-3.01l-17.34-18.36v18.36h-3.16v-23.66h2.56Z" fill="#fff" stroke-width="0"/>
      <path d="M155.77,22.11h15.11c2.38,0,3.19.54,3.19,2.83v4.76l-3.16.66v-5.42h-15.14v18h15.17v-5.48l3.16.87v4.61c0,1.87-.9,2.83-3.16,2.83h-15.17c-2.14,0-3.16-.51-3.16-2.8v-18.03c0-2.29.9-2.83,3.16-2.83Z" fill="#fff" stroke-width="0"/>
      <path d="M179.19,22.11l7.35,9.42,7.32-9.42h3.79l-8.88,11.74,9.18,11.92h-3.88l-7.74-9.75-7.71,9.75h-3.91l9.54-11.92-8.94-11.74h3.88Z" fill="#fff" stroke-width="0"/>
      <path d="M217.22,45.77h-15.32c-2.11,0-3.1-.54-3.1-2.83v-2.89l3.13-.54v3.43h15.29v-8.1h-14.66c-2.26,0-3.16-.51-3.16-2.83v-7.07c0-2.29.9-2.83,3.16-2.83h14.42c2.41,0,3.16.57,3.16,2.83v2.2l-3.16.51v-2.71h-14.42v7.07h14.66c2.35,0,3.16.57,3.16,2.83v8.1c0,1.87-.9,2.83-3.16,2.83Z" fill="#fff" stroke-width="0"/>
      <path d="M241.58,45.77h-15.32c-2.11,0-3.1-.54-3.1-2.83v-2.89l3.13-.54v3.43h15.29v-8.1h-14.66c-2.26,0-3.16-.51-3.16-2.83v-7.07c0-2.29.9-2.83,3.16-2.83h14.42c2.41,0,3.16.57,3.16,2.83v2.2l-3.16.51v-2.71h-14.42v7.07h14.66c2.35,0,3.16.57,3.16,2.83v8.1c0,1.87-.9,2.83-3.16,2.83Z" fill="#fff" stroke-width="0"/>
    </g>
    <path d="M84.91,67.81h-10.76l-14.36-18.11-7.06-8.91-1.69,2.14-11.67,14.77-6.19,7.84H8.59c-5.84,0-8.59-1.5-8.59-7.84v-8l8.67-1.5v9.51h19.96l17.96-22.43H10.42c-6.25,0-8.76-1.42-8.76-7.84V7.84C1.67,1.5,4.17,0,10.42,0h39.94c6.67,0,8.76,1.58,8.76,7.84v6.09l-8.76,1.42v-7.5H10.42v19.6h40.61c.55,0,1.08.02,1.57.04.47.02.91.06,1.32.11L73.57,2.27h10.51l-24.31,32.13-.29.39.31.4,25.12,32.62Z" fill="#fff" stroke-width="0"/>
  </g>
</svg>